<mxfile host="app.diagrams.net" modified="2024-03-31T11:13:52.094Z" agent="Mozilla/5.0 (Windows NT 10.0; Win64; x64) AppleWebKit/537.36 (KHTML, like Gecko) Chrome/123.0.0.0 Safari/537.36" etag="sS7Z51iRWHZKUDeSgefV" version="24.2.1" type="github">
  <diagram name="Page-1" id="4NqaT8gKxhjrZUVEQpOV">
    <mxGraphModel dx="837" dy="1978" grid="1" gridSize="10" guides="1" tooltips="1" connect="1" arrows="1" fold="1" page="1" pageScale="1" pageWidth="850" pageHeight="1100" math="0" shadow="0">
      <root>
        <mxCell id="0" />
        <mxCell id="1" parent="0" />
        <mxCell id="xwyf1Sa09ViJSw9hI-mv-1" value="" style="shape=curlyBracket;whiteSpace=wrap;html=1;rounded=1;flipH=1;labelPosition=right;verticalLabelPosition=middle;align=left;verticalAlign=middle;rotation=-90;size=0.5;" vertex="1" parent="1">
          <mxGeometry x="1231" y="-113.75" width="20" height="300" as="geometry" />
        </mxCell>
        <mxCell id="xwyf1Sa09ViJSw9hI-mv-2" value="" style="shape=mxgraph.gcp2.doubleRect;strokeColor=#dddddd;shadow=1;strokeWidth=1;rounded=1;absoluteArcSize=1;arcSize=2;" vertex="1" parent="1">
          <mxGeometry x="1120" y="71.75" width="250" height="68" as="geometry" />
        </mxCell>
        <mxCell id="xwyf1Sa09ViJSw9hI-mv-3" value="&lt;font color=&quot;#000000&quot;&gt;Simulator&lt;/font&gt;&lt;div&gt;General purpose&lt;/div&gt;" style="editableCssRules=.*;html=1;fontColor=#999999;shape=image;verticalLabelPosition=middle;verticalAlign=middle;labelPosition=right;align=left;spacingLeft=20;part=1;points=[];imageAspect=0;image=data:image/svg+xml,PHN2ZyB4bWxucz0iaHR0cDovL3d3dy53My5vcmcvMjAwMC9zdmciIHhtbG5zOnY9Imh0dHBzOi8vdmVjdGEuaW8vbmFubyIgd2lkdGg9IjIwIiBoZWlnaHQ9IjE2IiB2aWV3Qm94PSIwIDAgMjAgMTYiPiYjeGE7CTxzdHlsZSB0eXBlPSJ0ZXh0L2NzcyI+JiN4YTsJLnN0MHtmaWxsOiM2NjlkZjY7fSYjeGE7CS5zdDF7ZmlsbDojNDI4NWY0O30mI3hhOwkuc3Qye2ZpbGw6I2FlY2JmYTt9JiN4YTsJPC9zdHlsZT4mI3hhOwk8cGF0aCBjbGFzcz0ic3QwIiBkPSJNMTUgMmgzdjEyaC0zdjJoMyAydi0yVjIgMGgtMi0zeiIvPiYjeGE7CTxwYXRoIGNsYXNzPSJzdDEiIGQ9Ik0xOCAydjFsMi0xem0yIDEydi0xbC0yIDF6Ii8+JiN4YTsJPHBhdGggY2xhc3M9InN0MCIgZD0iTTUgMTRIMlYyaDNWMEgyIDB2MiAxMiAyaDIgM3oiLz4mI3hhOwk8cGF0aCBjbGFzcz0ic3QxIiBkPSJNMCAxNHYtMWwyIDF6TTIgMnYxTDAgMnoiLz4mI3hhOwk8cGF0aCBjbGFzcz0ic3QyIiBkPSJNNSA3aDEwdjJINXptMCAzaDEwdjJINXptMC02aDEwdjJINXoiLz4mI3hhOzwvc3ZnPg==;" vertex="1" parent="xwyf1Sa09ViJSw9hI-mv-2">
          <mxGeometry width="30" height="24" relative="1" as="geometry">
            <mxPoint x="15" y="18" as="offset" />
          </mxGeometry>
        </mxCell>
        <mxCell id="xwyf1Sa09ViJSw9hI-mv-4" value="" style="shape=mxgraph.gcp2.doubleRect;strokeColor=#dddddd;shadow=1;strokeWidth=1;rounded=1;absoluteArcSize=1;arcSize=2;" vertex="1" parent="1">
          <mxGeometry x="1120" y="281.90999999999997" width="250" height="68" as="geometry" />
        </mxCell>
        <mxCell id="xwyf1Sa09ViJSw9hI-mv-5" value="&lt;font color=&quot;#000000&quot;&gt;Simulator&lt;/font&gt;&lt;br&gt;Specific domain-tailored&amp;nbsp;&lt;div&gt;purpose&lt;/div&gt;" style="editableCssRules=.*;html=1;fontColor=#999999;shape=image;verticalLabelPosition=middle;verticalAlign=middle;labelPosition=right;align=left;spacingLeft=20;part=1;points=[];imageAspect=0;image=data:image/svg+xml,PHN2ZyB4bWxucz0iaHR0cDovL3d3dy53My5vcmcvMjAwMC9zdmciIHhtbG5zOnY9Imh0dHBzOi8vdmVjdGEuaW8vbmFubyIgd2lkdGg9IjIwIiBoZWlnaHQ9IjE2IiB2aWV3Qm94PSIwIDAgMjAgMTYiPiYjeGE7CTxzdHlsZSB0eXBlPSJ0ZXh0L2NzcyI+JiN4YTsJLnN0MHtmaWxsOiM2NjlkZjY7fSYjeGE7CS5zdDF7ZmlsbDojNDI4NWY0O30mI3hhOwkuc3Qye2ZpbGw6I2FlY2JmYTt9JiN4YTsJPC9zdHlsZT4mI3hhOwk8cGF0aCBjbGFzcz0ic3QwIiBkPSJNMTUgMmgzdjEyaC0zdjJoMyAydi0yVjIgMGgtMi0zeiIvPiYjeGE7CTxwYXRoIGNsYXNzPSJzdDEiIGQ9Ik0xOCAydjFsMi0xem0yIDEydi0xbC0yIDF6Ii8+JiN4YTsJPHBhdGggY2xhc3M9InN0MCIgZD0iTTUgMTRIMlYyaDNWMEgyIDB2MiAxMiAyaDIgM3oiLz4mI3hhOwk8cGF0aCBjbGFzcz0ic3QxIiBkPSJNMCAxNHYtMWwyIDF6TTIgMnYxTDAgMnoiLz4mI3hhOwk8cGF0aCBjbGFzcz0ic3QyIiBkPSJNNSA3aDEwdjJINXptMCAzaDEwdjJINXptMC02aDEwdjJINXoiLz4mI3hhOzwvc3ZnPg==;" vertex="1" parent="xwyf1Sa09ViJSw9hI-mv-4">
          <mxGeometry width="30" height="24" relative="1" as="geometry">
            <mxPoint x="15" y="18" as="offset" />
          </mxGeometry>
        </mxCell>
        <mxCell id="xwyf1Sa09ViJSw9hI-mv-6" value="" style="shape=image;imageAspect=0;aspect=fixed;verticalLabelPosition=bottom;verticalAlign=top;image=https://netlogoweb.org/assets/images/netlogowebicon.png;" vertex="1" parent="1">
          <mxGeometry x="1130" y="166.75" width="52.5" height="52.5" as="geometry" />
        </mxCell>
        <mxCell id="xwyf1Sa09ViJSw9hI-mv-7" value="" style="shape=image;imageAspect=0;aspect=fixed;verticalLabelPosition=bottom;verticalAlign=top;image=https://upload.wikimedia.org/wikipedia/commons/0/0b/Arena_jailson.jpg;" vertex="1" parent="1">
          <mxGeometry x="1190" y="181.75" width="80" height="27.43" as="geometry" />
        </mxCell>
        <mxCell id="xwyf1Sa09ViJSw9hI-mv-8" value="" style="shape=image;imageAspect=0;aspect=fixed;verticalLabelPosition=bottom;verticalAlign=top;image=https://seeklogo.com/images/A/anylogic-logo-935EED9777-seeklogo.com.png;" vertex="1" parent="1">
          <mxGeometry x="1280" y="183.05" width="80" height="26.13" as="geometry" />
        </mxCell>
        <mxCell id="xwyf1Sa09ViJSw9hI-mv-9" value="" style="shape=image;imageAspect=0;aspect=fixed;verticalLabelPosition=bottom;verticalAlign=top;image=https://upload.wikimedia.org/wikipedia/commons/3/36/Simulink_Logo_%28non-wordmark%29.png;" vertex="1" parent="1">
          <mxGeometry x="1130" y="376.24999999999994" width="60" height="60" as="geometry" />
        </mxCell>
        <mxCell id="xwyf1Sa09ViJSw9hI-mv-10" value="" style="shape=image;imageAspect=0;aspect=fixed;verticalLabelPosition=bottom;verticalAlign=top;image=https://carla.org//img/logo/carla-black-m.png;" vertex="1" parent="1">
          <mxGeometry x="1211" y="378.25" width="58" height="58" as="geometry" />
        </mxCell>
        <mxCell id="xwyf1Sa09ViJSw9hI-mv-11" value="" style="shape=image;imageAspect=0;aspect=fixed;verticalLabelPosition=bottom;verticalAlign=top;image=https://upload.wikimedia.org/wikipedia/commons/f/f5/Sumo_application_icon.svg;" vertex="1" parent="1">
          <mxGeometry x="1280" y="356.03" width="78" height="110.22" as="geometry" />
        </mxCell>
        <mxCell id="xwyf1Sa09ViJSw9hI-mv-12" style="edgeStyle=orthogonalEdgeStyle;rounded=0;orthogonalLoop=1;jettySize=auto;html=1;entryX=0.1;entryY=0.5;entryDx=0;entryDy=0;entryPerimeter=0;dashed=1;" edge="1" parent="1" source="xwyf1Sa09ViJSw9hI-mv-14" target="xwyf1Sa09ViJSw9hI-mv-1">
          <mxGeometry relative="1" as="geometry" />
        </mxCell>
        <mxCell id="xwyf1Sa09ViJSw9hI-mv-13" value="" style="group" vertex="1" connectable="0" parent="1">
          <mxGeometry x="1166" y="-341" width="150" height="140" as="geometry" />
        </mxCell>
        <mxCell id="xwyf1Sa09ViJSw9hI-mv-14" value="&lt;b&gt;&lt;i&gt;&amp;lt;&amp;lt;MIDDLEWARE&amp;gt;&amp;gt;&lt;/i&gt;&lt;/b&gt;&lt;div&gt;&lt;b&gt;&lt;br&gt;&lt;/b&gt;&lt;/div&gt;&lt;div&gt;&lt;b&gt;&lt;br&gt;&lt;/b&gt;&lt;/div&gt;&lt;div&gt;&lt;br&gt;&lt;/div&gt;&lt;div&gt;&lt;b&gt;&lt;br&gt;&lt;/b&gt;&lt;/div&gt;&lt;div&gt;&lt;b&gt;&lt;br&gt;&lt;/b&gt;&lt;/div&gt;&lt;div&gt;&lt;b&gt;&lt;br&gt;&lt;/b&gt;&lt;/div&gt;&lt;div&gt;&lt;b&gt;&lt;br&gt;&lt;/b&gt;&lt;/div&gt;" style="rounded=0;whiteSpace=wrap;html=1;dashed=1;" vertex="1" parent="xwyf1Sa09ViJSw9hI-mv-13">
          <mxGeometry width="150" height="140" as="geometry" />
        </mxCell>
        <mxCell id="xwyf1Sa09ViJSw9hI-mv-15" value="&lt;i&gt;&amp;lt;&amp;lt;IDE Plugins&amp;gt;&amp;gt;&lt;/i&gt;" style="editableCssRules=.*;html=1;shape=image;verticalLabelPosition=bottom;labelBackgroundColor=#ffffff;verticalAlign=top;aspect=fixed;imageAspect=0;image=data:image/svg+xml,PHN2ZyB4bWxucz0iaHR0cDovL3d3dy53My5vcmcvMjAwMC9zdmciIHhtbG5zOnY9Imh0dHBzOi8vdmVjdGEuaW8vbmFubyIgd2lkdGg9IjIwIiBoZWlnaHQ9IjExLjI1OTk5OTI3NTIwNzUyIiBmaWxsLXJ1bGU9ImV2ZW5vZGQiIHZpZXdCb3g9IjAgMCAyMCAxMS4yNTk5OTkyNzUyMDc1MiI+JiN4YTsJPHN0eWxlIHR5cGU9InRleHQvY3NzIj4mI3hhOwkuc3Qwe2ZpbGw6IzQyODVmNDt9JiN4YTsJLnN0MXtmaWxsOiM2NjlkZjY7fSYjeGE7CS5zdDJ7ZmlsbDojYWVjYmZhO30mI3hhOwk8L3N0eWxlPiYjeGE7CTxwYXRoIGNsYXNzPSJzdDEiIGQ9Ik00LjY4IDEuNDJIMi40MkwwIDUuNjdsMi40MiA0LjI2aDIuMjZMMi4yNyA1LjY3eiIvPiYjeGE7CTxwYXRoIGNsYXNzPSJzdDAiIGQ9Ik0wIDUuNjdsMS4xMSAxLjk3IDEuNDYtMS40NS0uMy0uNTJ6Ii8+JiN4YTsJPHBhdGggY2xhc3M9InN0MiIgZD0iTTEzIDBINy4xMkwzLjgxIDUuNjNsMy4zMSA1LjU5SDEzbDMuMjktNS41OXptLTIuOTMgOC4zNmEyLjY0IDIuNjQgMCAxIDEgMi42Ni0yLjY0IDIuNjUgMi42NSAwIDAgMS0yLjY2IDIuNjR6TTIuNDIgMS40MkwwIDUuNjlsMS4xMSAxLjk3IDEuMTYtMS45NyAyLjQxLTQuMjd6Ii8+JiN4YTsJPHBhdGggY2xhc3M9InN0MSIgZD0iTTEzIC4wOGgwbC0xLjcgMy4zM2EyLjY2IDIuNjYgMCAwIDEtMS4yNSA1IDIuNjIgMi42MiAwIDAgMS0xLjE4LS4yN2wtMS43NSAzLjEySDEzbDMuMjktNS42M3ptMi4zMiA5Ljg1aDIuMjdMMjAgNS42N2wtMi40MS00LjI1aC0yLjI3bDIuNDEgNC4yNXoiPiYjeGE7CTxwYXRoIGNsYXNzPSJzdDAiIGQ9Ik0yMCA1LjY3TDE4Ljg5IDMuN2wtMS40NiAxLjQ2LjMuNTF6Ii8+JiN4YTsJPHBhdGggY2xhc3M9InN0MiIgZD0iTTE3LjU5IDkuOTNMMjAgNS42NWwtMS4xMS0xLjk3LTEuMTYgMS45Ny0yLjQxIDQuMjh6Ii8+JiN4YTs8L3BhdGg+PC9zdmc+;" vertex="1" parent="xwyf1Sa09ViJSw9hI-mv-13">
          <mxGeometry x="29.539999999999992" y="45" width="90.91" height="50" as="geometry" />
        </mxCell>
        <mxCell id="xwyf1Sa09ViJSw9hI-mv-16" value="" style="edgeStyle=orthogonalEdgeStyle;rounded=0;orthogonalLoop=1;jettySize=auto;html=1;" edge="1" parent="1" source="xwyf1Sa09ViJSw9hI-mv-17" target="xwyf1Sa09ViJSw9hI-mv-18">
          <mxGeometry relative="1" as="geometry" />
        </mxCell>
        <mxCell id="xwyf1Sa09ViJSw9hI-mv-17" value="" style="shape=curlyBracket;whiteSpace=wrap;html=1;rounded=1;flipH=1;labelPosition=right;verticalLabelPosition=middle;align=left;verticalAlign=middle;rotation=0;size=0.5;" vertex="1" parent="1">
          <mxGeometry x="1390" y="147.93" width="20" height="94.13" as="geometry" />
        </mxCell>
        <mxCell id="xwyf1Sa09ViJSw9hI-mv-18" value="&lt;ul&gt;&lt;li&gt;Event driven&lt;/li&gt;&lt;li&gt;Fluid dynamics&lt;/li&gt;&lt;li&gt;Agent-based&lt;/li&gt;&lt;li&gt;Object Oriented&lt;/li&gt;&lt;li&gt;System Dynamics&lt;/li&gt;&lt;/ul&gt;" style="whiteSpace=wrap;html=1;align=left;rounded=1;" vertex="1" parent="1">
          <mxGeometry x="1450" y="142.97" width="150" height="105" as="geometry" />
        </mxCell>
        <mxCell id="xwyf1Sa09ViJSw9hI-mv-19" value="" style="edgeStyle=orthogonalEdgeStyle;rounded=0;orthogonalLoop=1;jettySize=auto;html=1;" edge="1" parent="1" source="xwyf1Sa09ViJSw9hI-mv-20" target="xwyf1Sa09ViJSw9hI-mv-21">
          <mxGeometry relative="1" as="geometry" />
        </mxCell>
        <mxCell id="xwyf1Sa09ViJSw9hI-mv-20" value="" style="shape=curlyBracket;whiteSpace=wrap;html=1;rounded=1;flipH=1;labelPosition=right;verticalLabelPosition=middle;align=left;verticalAlign=middle;rotation=0;size=0.5;" vertex="1" parent="1">
          <mxGeometry x="1380" y="358.71000000000004" width="20" height="94.13" as="geometry" />
        </mxCell>
        <mxCell id="xwyf1Sa09ViJSw9hI-mv-21" value="&lt;ul&gt;&lt;li&gt;Sandbox&lt;/li&gt;&lt;/ul&gt;" style="whiteSpace=wrap;html=1;align=left;rounded=1;" vertex="1" parent="1">
          <mxGeometry x="1450" y="390" width="150" height="30" as="geometry" />
        </mxCell>
      </root>
    </mxGraphModel>
  </diagram>
</mxfile>
